# xmcd
#
# Track frame offsets:
# 150
# 13776
# 30280
# 42377
# 57530
# 71778
# 86447
# 100254
# 116099
# 129993
# 148289
# 168118
# 184519
# 204917
# 219488
#
# Disc length: 3132 seconds
#
#
# Revision: 1
# Processed by: cddbd v1.5.1PL0 Copyright (c) Steve Scherf et al.
# Submitted via: FreeRIP 2.942 
#
DISCID=d10c3a0f
DTITLE=Vários - As Melhores Sertanejas - 2002
DYEAR=2002
DGENRE=Country
TTITLE0=Teodoro e Sampaio - Meu Barraco Caiu
TTITLE1=Cézar e Paulinho - Nóis é Caubói
TTITLE2=Bruno e Marrone - Dormi na Praça
TTITLE3=Teodoro e Sampaio - O Garrafão
TTITLE4=Rio Negro e Solimões - Solidão e Saudade
TTITLE5=Chitãozinho e Xororó - Galinhada
TTITLE6=Teodoro e Sampaio - A Rabada da Cunhada
TTITLE7=Rick e Renner - Fica Amor Tá Cedo
TTITLE8=Bruno e Marrone - Amor de Carnaval
TTITLE9=Cézar e Paulinho - Chique no Úrtimo(Part. Moacyr Franco)
TTITLE10=Daniel - A Jiripoca Vai Piá
TTITLE11=Felipe e Falcão - Que Pena
TTITLE12=Daniel - Só Seu Amor Não Vai Embora
TTITLE13=Leonardo - Todas as Coisas do Mundo
TTITLE14=Zezé di Camargo e Luciano - Pra Sempre em Mim
EXTD=
EXTT0=
EXTT1=
EXTT2=
EXTT3=
EXTT4=
EXTT5=
EXTT6=
EXTT7=
EXTT8=
EXTT9=
EXTT10=
EXTT11=
EXTT12=
EXTT13=
EXTT14=
PLAYORDER=
